<?xml version="1.0" standalone="no"?>
<!DOCTYPE svg PUBLIC "-//W3C//DTD SVG 20010904//EN"
 "http://www.w3.org/TR/2001/REC-SVG-20010904/DTD/svg10.dtd">
<svg version="1.0" xmlns="http://www.w3.org/2000/svg"
 width="260.000000pt" height="260.000000pt" viewBox="0 0 260.000000 260.000000"
 preserveAspectRatio="xMidYMid meet">
<metadata>
Created by potrace 1.11, written by Peter Selinger 2001-2013
</metadata>
<g transform="translate(0.000000,260.000000) scale(0.100000,-0.100000)"
fill="#000000" stroke="none">
<path d="M1384 2515 c-4 -8 -9 -13 -13 -11 -4 3 -25 0 -47 -5 -21 -5 -49 -12
-61 -14 -49 -11 -183 -103 -183 -126 0 -4 10 -9 23 -12 12 -4 31 -13 42 -21
19 -14 18 -15 -14 -45 -18 -17 -39 -31 -46 -31 -20 0 -119 -99 -158 -159 -31
-46 -34 -57 -25 -80 30 -76 54 -116 100 -166 l50 -55 -338 0 c-272 0 -335 -2
-322 -12 25 -20 65 -90 73 -128 12 -55 15 -80 31 -320 3 -41 7 -95 9 -120 4
-60 19 -274 30 -450 14 -234 15 -239 51 -286 36 -48 119 -98 291 -176 87 -38
196 -88 243 -110 47 -21 107 -49 134 -61 l48 -23 47 22 c25 12 75 36 111 52
83 38 267 122 344 157 72 33 151 81 189 115 51 44 56 68 72 305 3 44 8 118 11
165 3 47 7 110 9 140 10 161 16 240 20 290 3 30 7 91 10 135 10 154 24 203 75
274 11 16 20 31 20 33 0 1 -122 2 -271 0 -249 -2 -272 -1 -284 15 -11 15 -7
24 33 68 25 27 59 79 76 115 28 59 31 74 30 160 0 84 -3 102 -29 153 -52 104
-177 192 -288 202 -20 2 -41 6 -46 9 -5 4 -12 2 -16 -4 -4 -6 -11 -8 -16 -4
-5 3 -7 10 -4 15 4 5 4 9 0 9 -3 0 -8 -7 -11 -15z"/>
</g>
</svg>
