<?xml version="1.0" encoding="utf-8"?>
<!-- Generator: Adobe Illustrator 19.0.0, SVG Export Plug-In . SVG Version: 6.00 Build 0)  -->
<svg version="1.1" id="Layer_1" xmlns="http://www.w3.org/2000/svg" xmlns:xlink="http://www.w3.org/1999/xlink" x="0px" y="0px"
	 viewBox="0 0 841.9 188" style="enable-background:new 0 0 841.9 188;" xml:space="preserve">
<style type="text/css">
	.st0{fill:#ED1C24;}
</style>
<g>
	<polyline class="st0" points="149.3,22.4 13.7,22.4 13.7,49.1 87.3,49.1 91,49 6,167.9 147.6,167.9 147.7,142.6 70.2,142.6 
		68.4,142.5 153.4,22.4 149.3,22.4 	"/>
	<path class="st0" d="M298.6,93.9c3.9,3.8,6.9,7.2,6.8,10.6c0,0.2,0,0.4,0,0.5l0,0.2l0,0.1l-56.9,0c0-0.2,0-0.5,0-0.7
		c0-3.6,2.6-7.8,7.5-11.4c5.5-3.3,13.4-5.2,21.3-5.2C285.4,87.9,293.3,89.9,298.6,93.9 M292.6,63.5c-5.1-0.7-10.2-1-15-1
		c-24.1,0-45.2,7.7-60.9,22.3c-9.3,8.8-14.3,20.9-14.3,33c0,7.4,1.9,14.9,6,21.4c8.8,13.4,25.5,24.3,44.2,28.2
		c6.9,1,13.8,1.4,20.5,1.4c27.3,0,53.4-7.8,68.3-25.9l2.4-2.9l-3.5-0.8l-30.7-7l-0.8,0.9c-5.9,7.2-18.2,11.9-31.4,11.9
		c-2,0-4-0.1-6.1-0.3c-9.2-1.7-17.9-5.6-23.4-11.7c-1.9-2.8-2.9-4.8-3.2-8.7h103.6l0.3-1.9c0.3-2.5,0.5-5,0.5-7.5
		c0-9.1-2.5-18.2-7.8-25.6C330.8,75.6,313.4,66.7,292.6,63.5z"/>
	<path class="st0" d="M195.1,26.9c-4.1-3-9.6-4.8-15.7-4.8c-6.1,0-11.6,1.8-15.7,4.8c-4.1,3-6.9,7.4-6.9,12.5
		c0,5.1,2.8,9.5,6.9,12.5c4.1,3,9.6,4.8,15.7,4.8c6,0,11.5-1.8,15.7-4.8c4.1-3,6.9-7.4,6.9-12.5C202,34.3,199.2,29.9,195.1,26.9"/>
	<polyline class="st0" points="161.6,167.8 198.3,167.8 198.3,165.6 198.3,61.5 161.6,61.5 161.6,167.8 	"/>
	<path class="st0" d="M451.3,115.5c0,7.2-3.1,13.8-8.4,18.7c-5.2,4.9-12.5,8-20.6,8c-8.1,0-15.4-3.1-20.6-8
		c-5.2-4.9-8.4-11.5-8.4-18.7c0-7.2,3.1-13.8,8.4-18.7c5.2-4.9,12.5-8,20.6-7.9c8.1,0,15.4,3.1,20.6,7.9
		C448.1,101.7,451.2,108.3,451.3,115.5 M593.7,118.8c0,7.2-3.1,13.8-8.3,18.7c-5.2,4.9-12.5,7.9-20.6,7.9c-8.1,0-15.4-3.1-20.6-7.9
		c-5.2-4.9-8.3-11.5-8.4-18.7c0-7.2,3.1-13.9,8.4-18.7c5.2-4.9,12.5-7.9,20.6-7.9c8.1,0,15.4,3.1,20.6,7.9
		C590.6,105,593.7,111.6,593.7,118.8z M594.1,75.7c-5.5-3.2-10.5-5.7-18.9-9.1c-7.3-3-15.6-4.3-24-4.3c-11.9,0-23.8,2.7-32.8,7.2
		c-15.7,8.4-22.9,20.9-24.9,34.1c-1.8-13.4-9-26.1-24.9-34.5c-9-4.6-21-7.3-32.8-7.3c-8.4,0-16.7,1.3-24,4.3
		c-8.4,3.4-13.4,5.9-18.9,9.1l0.1-52.9h-39.8v145.4H393V155c2,1.5,4.3,3,8.2,5.7c9.1,5.5,21.5,8.1,33.8,8.1c8.2,0,16.2-1.2,23.1-3.6
		c24.2-9.3,32.9-27.9,35.4-45.5c2.5,17.8,11.1,36.6,35.4,45.9c7,2.4,15,3.6,23.2,3.6c12.2,0,24.6-2.6,33.7-8.1
		c4-2.7,6.3-4.2,8.3-5.8v12.8h39.8V61.4H594L594.1,75.7z"/>
	<path class="st0" d="M777.8,141.6c-1.6-0.3-2.9-0.7-3.7-1.2c-0.4-0.2-0.6-0.4-0.7-0.5l0,0V90.1H789V61.5h-15.4V40.3l-39.3,0v20
		c-1.7-0.1-3.6-0.1-5.6-0.1c-8.3,0-18.6,0.5-23,1.4c-9.1,2.3-15.1,8.3-19,14.8l0-14.9h-39.8v106.3h39.7l0-61.1
		c0-3.4,1.5-5.9,4.4-8.3c2.8-2.4,6.9-4.5,11.2-6.7c4.2-1.2,9.1-1.6,14.1-1.6c0.5,0,1.1,0,1.6,0h16.2l-0.1,62.6
		c0.1,4,2.8,6.3,6.4,9.3l0.1,0.1l0.1,0.1c8,4.5,17.8,5.6,27.7,5.6c6.3,0,12.6-0.4,18.6-0.8l1.9-0.1l0.1-24.2l-1.9-0.1
		C784.7,142.5,780.9,142.3,777.8,141.6"/>
	<path class="st0" d="M806.7,156.7v-3.6h2.4c1.2,0,2.5,0.3,2.5,1.7c0,1.8-1.3,1.9-2.8,1.9H806.7 M813.4,155c0-2.3-1.4-3.3-4.1-3.3
		h-4.4v11.5h1.8v-5h2l3.1,5h2l-3.3-5.1C812.1,157.9,813.4,157,813.4,155z"/>
	<path class="st0" d="M808.8,165.8c-4.6,0-8.2-3.5-8.2-8.4c0-4.7,3.6-8.3,8.2-8.3c4.6,0,8.2,3.6,8.2,8.3
		C817,162.2,813.4,165.8,808.8,165.8 M808.8,147.4c-5.6,0-10.3,4.2-10.3,10c0,5.8,4.7,10,10.3,10c5.5,0,10.2-4.2,10.2-10
		C819,151.7,814.3,147.4,808.8,147.4z"/>
</g>
</svg>
