<?xml version="1.0" encoding="utf-8"?>
<!-- Generator: Adobe Illustrator 19.0.0, SVG Export Plug-In . SVG Version: 6.00 Build 0)  -->
<svg version="1.1" id="Layer_1" xmlns="http://www.w3.org/2000/svg" xmlns:xlink="http://www.w3.org/1999/xlink" x="0px" y="0px"
	 viewBox="0 0 288 389" style="enable-background:new 0 0 288 389;" xml:space="preserve">
<style type="text/css">
	.st0{fill:#231F20;}
	.st1{fill:#FED402;}
	.st2{fill:#EC2127;}
	.st3{clip-path:url(#SVGID_2_);fill:url(#SVGID_3_);}
	.st4{clip-path:url(#SVGID_5_);fill:url(#SVGID_6_);}
	.st5{clip-path:url(#SVGID_8_);fill:url(#SVGID_9_);}
	.st6{clip-path:url(#SVGID_11_);fill:url(#SVGID_12_);}
	.st7{clip-path:url(#SVGID_14_);fill:url(#SVGID_15_);}
	.st8{clip-path:url(#SVGID_17_);fill:url(#SVGID_18_);}
	.st9{clip-path:url(#SVGID_20_);fill:url(#SVGID_21_);}
	.st10{clip-path:url(#SVGID_23_);fill:url(#SVGID_24_);}
	.st11{clip-path:url(#SVGID_26_);fill:url(#SVGID_27_);}
	.st12{fill:#FFFFFF;}
</style>
<g>
	<g>
		<g>
			<g>
				<path class="st0" d="M27,132.3c0,0,9.6,11.5,11,23c1.4,11.5,8.9,126.3,8.9,126.3s-0.1,12.4,3.7,18.4
					c5.7,8.9,23.7,17.4,23.7,17.4l69.9,31.8v0h0h0v0l69.5-31.8c0,0,18-8.5,23.7-17.4c3.8-6,3.7-18.4,3.7-18.4s7.5-114.8,8.9-126.3
					c1.4-11.5,11-23,11-23H27"/>
				<path class="st1" d="M61.3,152.7c0,0,1.8,5.7,2.9,14.3c1,8.7,6.6,111.4,6.6,111.4s-0.1,9.3,2.7,13.8
					c4.2,6.7,17.4,13.1,17.4,13.1l53.5,23.9v0l0,0v0v0l49-23.9c0,0,17.3-6.4,21.5-13.1c2.8-4.5,2.7-13.8,2.7-13.8S223,175.7,224,167
					c1-8.7,2.9-14.3,2.9-14.3H61.3"/>
				<path class="st2" d="M61.3,152.7c0,0,1.8,5.7,2.9,14.3c1,8.7,6.6,111.4,6.6,111.4s-0.1,9.3,2.7,13.8
					c4.2,6.7,17.4,13.1,17.4,13.1l53.5,23.9v0l0,0v0v0l49-23.9c0,0,17.3-6.4,21.5-13.1c2.8-4.5,2.7-13.8,2.7-13.8S223,175.7,224,167
					c1-8.7,2.9-14.3,2.9-14.3H61.3"/>
				<polyline class="st0" points="53.8,216.9 222.5,161.3 54,229.9 54.4,229.5 53.8,216.9 				"/>
				<polyline class="st0" points="232,254.1 91.1,300.3 231.5,241.1 232,254.1 				"/>
				<polyline class="st1" points="120.9,309.6 123.1,299.1 128.5,299.1 128.3,300.2 124.2,300.2 123.5,303.6 127.3,303.6 127,304.8 
					123.3,304.8 122.5,308.4 126.7,308.4 126.4,309.6 120.9,309.6 				"/>
				<path class="st1" d="M130.2,309.7c-1.6,0-2.4-0.7-2-2.4h1.4c-0.1,0.4-0.3,1.4,0.9,1.4c0.7,0,1.3-0.4,1.5-1.1
					c0.3-1.3-3.4-1.3-2.9-3.5c0.2-0.8,0.9-2,3-2c1.3,0,2.3,0.6,1.9,2.1h-1.3c0.2-0.8-0.1-1.2-0.9-1.2c-0.6,0-1.2,0.3-1.3,1
					c-0.3,1.3,3.4,1.3,2.9,3.5C132.9,309.1,131.6,309.7,130.2,309.7"/>
				<path class="st1" d="M136.2,302.2l0.3-1.4l1.3-0.5l-0.4,1.9h1.6l-0.2,0.9h-1.6l-1,4.5c-0.1,0.5-0.2,1.1,0.9,1.1
					c0.1,0,0.3,0,0.5-0.1l-0.2,0.9c-0.4,0-0.8,0.1-1.2,0.1c-1.1,0-1.5-0.5-1.4-1.3l1.1-5.2h-1.2l0.2-0.9H136.2"/>
				<polyline class="st1" points="139.8,309.6 138.4,309.6 138.7,308 140.1,308 139.8,309.6 				"/>
				<path class="st1" d="M148.1,309.6h-1.3l1.8-8.6l-1.7,1l0.3-1.3c0.4-0.1,1.5-0.9,2-1.2h1.1L148.1,309.6"/>
				<path class="st1" d="M157.4,304.6c-0.6,2.6-1.1,5.2-3.8,5.2c-1.5,0-2.3-1-1.9-2.6h1.3c-0.2,0.7,0,1.5,0.8,1.5
					c1.3,0,1.7-1.4,2.2-4h0c-0.5,0.7-1.2,0.9-1.9,0.9c-0.8,0-2.2-0.4-1.6-3.2c0.5-2.3,2-3.1,3.3-3.1
					C158.5,299.3,157.9,301.8,157.4,304.6 M153.8,302.4c-0.2,1-0.3,2.1,0.9,2.1c1.2,0,1.6-1.1,1.8-2.1c0.2-0.9,0.2-2.1-0.9-2.1
					C154.4,300.3,154,301.5,153.8,302.4z"/>
				<path class="st1" d="M164.5,299.5l-0.2,1.2h-3.4l-0.6,2.9l0,0c0.3-0.4,1.1-0.8,1.8-0.8c1.4,0,1.9,1.1,1.4,3.4
					c-0.3,1.6-1,3.5-3.5,3.5c-2.1,0-2.2-1.1-2-2.5h1.3c-0.2,0.8,0,1.5,0.9,1.5c1.3,0,1.6-1.2,1.8-2.2c0.3-1.5,0.5-2.6-0.7-2.6
					c-0.7,0-1.2,0.5-1.5,1.2h-1.2l1.2-5.7H164.5"/>
				<path class="st1" d="M170.3,304.6c-0.6,2.6-1.1,5.2-3.8,5.2c-1.5,0-2.3-1-1.9-2.6h1.3c-0.2,0.7,0,1.5,0.8,1.5
					c1.3,0,1.7-1.4,2.2-4h0c-0.5,0.7-1.2,0.9-1.9,0.9c-0.8,0-2.2-0.4-1.6-3.2c0.5-2.3,2-3.1,3.3-3.1
					C171.4,299.3,170.8,301.8,170.3,304.6 M166.6,302.4c-0.2,1-0.3,2.1,0.9,2.1c1.2,0,1.6-1.1,1.8-2.1c0.2-0.9,0.2-2.1-0.9-2.1
					C167.3,300.3,166.8,301.5,166.6,302.4z"/>
				<g>
					<defs>
						<path id="SVGID_1_" d="M246.4,140.3H41.7c0,0,5.7,6.9,7,17.5c1.3,10.6,8,119.9,8,119.9s-0.1,11.4,3.3,16.9
							c5.1,8.2,21.3,16,21.3,16l62.9,29.3v0h0v0l62.5-29.3c0,0,16.2-7.8,21.3-16c3.4-5.5,3.3-16.9,3.3-16.9s6.7-109.3,8-119.9
							C240.7,147.2,246.4,140.3,246.4,140.3 M226.8,152.8c0,0-0.9,2.9-1.9,7.8L67.7,224.3c-1.5-26.2-3.1-53-3.6-57.2
							c-1-8.7-2.9-14.3-2.9-14.3H226.8z M214.7,292.2c-4.2,6.7-21.5,13-21.5,13l-49,23.9l0,0h0h0l0,0l-53.5-23.9
							c0,0-2.3-1.1-5.2-2.8l133.6-56.2c-1,18.1-1.8,32.2-1.8,32.2S217.5,287.7,214.7,292.2z"/>
					</defs>
					<clipPath id="SVGID_2_">
						<use xlink:href="#SVGID_1_"  style="overflow:visible;"/>
					</clipPath>
					
						<linearGradient id="SVGID_3_" gradientUnits="userSpaceOnUse" x1="-179.7533" y1="309.1981" x2="-177.9811" y2="309.1981" gradientTransform="matrix(-53.4414 -114.6044 -114.6054 53.4409 26011.7578 -36802.3008)">
						<stop  offset="0" style="stop-color:#6D6F71"/>
						<stop  offset="2.645500e-002" style="stop-color:#6D6F71"/>
						<stop  offset="0.1587" style="stop-color:#FFFFFF"/>
						<stop  offset="0.3122" style="stop-color:#BCBEC0"/>
						<stop  offset="0.4709" style="stop-color:#6D6F71"/>
						<stop  offset="0.6561" style="stop-color:#BCBEC0"/>
						<stop  offset="0.7725" style="stop-color:#FFFFFF"/>
						<stop  offset="0.91" style="stop-color:#BCBEC0"/>
						<stop  offset="1" style="stop-color:#6D6F71"/>
					</linearGradient>
					<polygon class="st3" points="78.2,418.2 -34.7,176 209.8,61.9 322.8,304.2 					"/>
				</g>
				<g>
					<defs>
						<path id="SVGID_4_" d="M186.4,124.5c17.6-15.1,24-38.9,14-58.1C188.5,43.6,158,36,132.3,49.4c-4.8,2.5-8.3,5.1-12.1,8.6
							c4.4,1.4,8.1,4.7,11.4,7.9c-4.5,2.8-8.7,6.3-12.6,10.4c-2-0.1-3.1,0-3.1,0s-5.4,4.3-9.4,8.5c-6.2,6.4-11.5,15.8-11.5,15.8
							s1.2,7.3,7.5,16.6c7.1,10.4,17.1,16.6,17.1,16.6s0.8-1.3,2.1-3.4c0.5-0.1,1-0.2,1.3-0.2c0.7-0.1,1.3-0.3,2-0.4
							c0.1,0.8,0.1,2.2-0.1,4.3c-0.1,1.5-0.4,3.3-0.6,4.8c-8.8,4.9-16.5,10.7-20.2,16c12.1,1.3,32.2,24.1,32.2,24.1
							s33.1-32.6,52.6-22.1c0.8-5.2,1.4-10.6,0.1-16.4c-0.7-3.1-1.2-5.6-2.5-8.4c-0.3-0.1-0.6-0.2-0.9-0.4c0-0.1-0.1-0.1-0.1-0.2
							c-0.7-0.3-1.4-0.5-2-0.8c0.1-0.1,0.1-0.3,0.2-0.4C184.9,128.4,185.7,126.5,186.4,124.5"/>
					</defs>
					<clipPath id="SVGID_5_">
						<use xlink:href="#SVGID_4_"  style="overflow:visible;"/>
					</clipPath>
					
						<linearGradient id="SVGID_6_" gradientUnits="userSpaceOnUse" x1="-394.5394" y1="250.4864" x2="-392.7667" y2="250.4864" gradientTransform="matrix(-28.9679 -62.1215 -62.122 28.9676 4300.8472 -31626.668)">
						<stop  offset="0" style="stop-color:#6D6F71"/>
						<stop  offset="2.645500e-002" style="stop-color:#6D6F71"/>
						<stop  offset="0.1587" style="stop-color:#FFFFFF"/>
						<stop  offset="0.3122" style="stop-color:#BCBEC0"/>
						<stop  offset="0.4709" style="stop-color:#6D6F71"/>
						<stop  offset="0.6561" style="stop-color:#BCBEC0"/>
						<stop  offset="0.7725" style="stop-color:#FFFFFF"/>
						<stop  offset="0.91" style="stop-color:#BCBEC0"/>
						<stop  offset="1" style="stop-color:#6D6F71"/>
					</linearGradient>
					<polygon class="st4" points="106.6,199.8 31.2,38.2 180.7,-31.6 256.1,130.1 					"/>
				</g>
				<path class="st0" d="M136.3,183.2l-2-2.3c-5.4-6.1-21.3-22.1-30.3-23.1l-4.8-0.5l2.8-4c3.4-5,10-10.4,18.7-15.5l-2.4-1.5
					c-0.4-0.3-10.6-6.6-17.9-17.4c-6.7-9.8-8-17.5-8-17.8l-0.2-1l0.5-0.9c0.2-0.4,5.6-9.7,11.9-16.4c4.1-4.3,9.5-8.6,9.7-8.8
					l0.7-0.5l0.8-0.1c0.1,0,0.8-0.1,2.2-0.1c2.9-2.9,5.9-5.6,9.1-7.9c-2.3-2.1-4.9-3.9-7.6-4.8l-4.7-1.5l3.6-3.4
					c4.2-3.9,7.9-6.5,12.7-9c8.7-4.5,18.4-6.9,27.9-6.9c19.2,0,36.1,9.7,44.2,25.2c10.3,19.8,4.5,44.8-14.1,61.1
					c-0.4,1-0.8,1.9-1.2,2.9l0.3,0.1l0.1,0.2l0.9,0.4l0.5,1c1.4,3,1.9,5.6,2.6,8.5l0.1,0.5c1.4,6.5,0.7,12.4-0.1,17.4l-0.6,4
					l-3.6-1.9c-2.1-1.2-4.6-1.7-7.4-1.7c-17.9,0-41.6,23.1-41.8,23.4L136.3,183.2z M109.4,153.3c10.2,4.1,22.3,16.3,27.2,21.6
					c6.6-6,26.7-23,43.7-23c2.3,0,4.4,0.3,6.4,0.9c0.4-3.6,0.5-7.6-0.4-11.7l-0.1-0.5c-0.5-2.3-0.9-4.3-1.7-6.3l-0.8-0.3l-0.1-0.2
					c-0.3-0.1-0.7-0.3-1-0.4l-3-1.1l1.6-3.3c0.9-1.8,1.7-3.6,2.4-5.5l0.3-0.7l0.6-0.5c17-14.5,22.5-37,13.3-54.6
					c-7.1-13.6-22.1-22.1-39.1-22.1c-8.6,0-17.3,2.2-25.2,6.3c-3,1.6-5.6,3.2-8.1,5.3c3.1,1.8,5.8,4.3,8.2,6.6l2.7,2.6l-3.2,2
					c-4.3,2.7-8.3,6-12,9.9l-0.9,1l-1.3-0.1c-0.8,0-1.4,0-1.8,0c-1.6,1.3-5.4,4.6-8.4,7.7c-4.7,5-9,11.8-10.5,14.3
					c0.5,2.2,2.3,7.7,6.9,14.5c4.6,6.8,10.6,11.7,13.9,14.1c0.2-0.3,0.4-0.5,0.5-0.8l0.7-1.1l1.2-0.2c0.5-0.1,1-0.2,1.3-0.2l5.2-1
					l0.2,3.3c0.1,1,0.1,2.5-0.1,4.7c-0.1,1.3-0.3,3-0.6,5l-0.2,1.4l-1.2,0.7C118.9,145.3,113.1,149.5,109.4,153.3z M122,135.6
					l-1.3,2.1c0.4-0.2,0.7-0.4,1.1-0.6C121.9,136.6,122,136.1,122,135.6z"/>
				<path class="st0" d="M165.8,69.2c16.7,7.7,24.2,31.5,5.2,60.2c1.4,0.1,0.4-0.1,5.6,1c0.3,0.1,3.4-0.3,6.9,1
					c0.2-0.4,0.4-0.7,0.6-1.1c13.6-28.1,7.4-58.9-14-68.8c-16.8-7.7-37.9-0.3-52.8,17c0.9,0.1,2,0.2,3.6,0.4
					c1.2,0.2,3.8,0.4,4.8,0.5C138.5,66.1,154,63.8,165.8,69.2"/>
				<path class="st0" d="M140.7,80.6c-16.9-5.2-24.7-4.2-24.7-4.2s-5.4,4.3-9.4,8.5c-6.2,6.4-11.5,15.8-11.5,15.8s1.2,7.3,7.5,16.6
					c7.1,10.4,17.1,16.6,17.1,16.6s8.9-14.8,18.6-24.3c4.8-4.7,14.8-9.6,22.1-10c5.6-0.3,6.2,0.5,6.2,0.5l0.4-5.7
					C167,94.3,157.6,85.7,140.7,80.6 M134.3,105.7c-9.7,8.8-15.7,19.5-15.7,19.5s-4-1.6-10-10.4c-5.4-7.9-6.7-13.7-6.7-13.7
					s4.7-7.1,9.5-12.6c3.2-3.8,6.6-6.7,6.6-6.7s6.5-0.1,20.8,4.3c14.3,4.4,20.4,8.9,20.4,8.9S146.4,94.6,134.3,105.7z"/>
				<path class="st0" d="M101,104.7l-4.1-3.6l7.2-4.6c0,0,9.1-2.5,24.2-3.1c18.8-0.7,31.4,1.6,31.4,1.6s1.1,2.5-4.2,3
					c-3.4,0.3-17.9-1.2-36.7,2.1C110.6,101.6,101,104.7,101,104.7"/>
				<path class="st0" d="M122.5,126.3c-0.2,0.3-1.5,2.9-1.6,3.2c-0.2,0.3-0.6,0.9-0.8,1.2c0.7-0.1,2.5-0.4,3.1-0.6
					c13.3-2.7,19.7-4.5,22-6.2c1.3-1.8,1.8-3.6,2.3-5.7c0.4-1.4,0.4-2.8,0.5-4.1C146.5,115.5,142.1,120.9,122.5,126.3"/>
				<path class="st0" d="M189.2,140.5c-0.7-3.1-1.2-5.6-2.5-8.4c-9.5-3.9-20.4-6.1-32.3-4.2c-17,2.6-42.3,15.9-50.1,27.1
					c12.1,1.3,32.2,24.1,32.2,24.1s33.1-32.6,52.6-22.1C189.9,151.7,190.5,146.3,189.2,140.5 M184.2,150.1
					c-26.1-6.8-47.4,20-47.4,20s-11.9-15-23-17.9c7.1-6.4,27.2-18.7,43.3-19.7c9.8-0.6,17.2,0.8,24.9,4.4c1,1.5,1.5,4,1.8,6
					C184.3,146,184.4,146.7,184.2,150.1z"/>
				<path class="st0" d="M136.5,179.2l-0.1-0.1c-0.2-0.2-20.2-22.7-32.1-24l-0.3,0l0.1-0.2c3.7-5.3,11.6-11.4,21.7-16.8
					c9.9-5.3,20.3-9.1,28.6-10.3c2.8-0.4,5.7-0.6,8.6-0.6c7.9,0,15.9,1.6,23.8,4.9l0.1,0l0,0.1c1.3,2.7,1.7,5,2.4,8l0.1,0.5
					c1.3,6,0.6,11.7-0.1,16.5l0,0.2L189,157c-2.5-1.4-5.5-2.1-8.7-2.1c-19,0-43.5,23.9-43.8,24.1L136.5,179.2z M104.6,154.8
					c11.6,1.5,30.3,22.2,31.9,24c1.9-1.8,25.4-24.1,43.9-24.1c3.2,0,6.1,0.7,8.7,2c0.7-4.7,1.3-10.2,0.1-16.1l-0.1-0.5
					c-0.6-2.9-1.1-5.2-2.3-7.8c-7.8-3.2-15.8-4.9-23.6-4.9c-2.8,0-5.7,0.2-8.5,0.6c-8.2,1.2-18.6,5-28.5,10.3
					C116.1,143.6,108.3,149.6,104.6,154.8z M136.8,170.3l-0.1-0.2c-0.1-0.1-12-15-22.9-17.9l-0.3-0.1l0.2-0.2
					c7.1-6.4,27.1-18.7,43.4-19.7c1.4-0.1,2.8-0.1,4.1-0.1c7.7,0,14.1,1.4,20.8,4.5l0,0l0,0c1,1.5,1.6,4.2,1.9,6.1
					c0.5,3.2,0.5,3.9,0.3,7.3l0,0.2l-0.2,0c-2.8-0.7-5.7-1.1-8.6-1.1c-21.7,0-38.5,20.8-38.6,21L136.8,170.3z M114.2,152.1
					c10.3,2.9,21.4,16.2,22.6,17.8c1.6-1.9,17.9-21,38.8-21c2.8,0,5.7,0.4,8.5,1.1c0.2-3.2,0.1-4-0.3-7c-0.3-1.9-0.8-4.4-1.8-5.9
					c-6.7-3.1-13-4.5-20.6-4.5c-1.3,0-2.7,0-4.1,0.1C141.1,133.6,121.4,145.6,114.2,152.1z"/>
				<path class="st0" d="M123.9,142c0,0,1.6-1.7,4.4-4.2c2.7-2.4,3.6-3.1,3.6-3.1s0.4-3,0.4-4.6c0-1.6-0.1-3.1-0.1-3.1l-7.1,2.1
					c0,0,0.3,1.8,0,5C124.8,137.4,123.9,142,123.9,142"/>
				<path class="st0" d="M200.4,66.5C188.5,43.6,158,36,132.3,49.4c-4.8,2.5-8.3,5.1-12.1,8.6c5.1,1.6,9.3,5.9,13,9.4
					c-0.7-0.8,5.2-2.3,4.8-3c-5.5-4.2-5.1-4.2-8.3-6.1c3.4-2.5,3-2.5,7.1-4.4c23.6-11,46.7-4.1,57.5,16.7c8,15.3,4.1,30.6-7.7,44.2
					c-1.1,4.3-2.7,8.7-4.7,13c0,0.1-0.1,0.2-0.1,0.3C202.9,113.4,211.2,87.2,200.4,66.5"/>
				<path class="st0" d="M188.2,139.9c-0.7-3.1-1.2-5.6-2.5-8.4c-9.5-3.9-20.4-6.1-32.3-4.2c-17,2.6-31,11.7-38.8,22.9
					c10.8-4.2,24.1-5.8,38.2-4.6c13.8,1.2,25.5,5,35.3,10.8C188.9,151.1,189.5,145.7,188.2,139.9 M185.9,149.5
					c-8.2-5.5-15.8-8.7-27.8-9.2c-18.4-0.8-21.8-0.2-31.4,3.1c7.1-6.4,14.9-10,29.4-11.5c9.7-1,19.6,1.3,27.6,4.3c1,1.5,1.5,4,1.9,6
					C186.1,145.4,186.1,146.2,185.9,149.5z"/>
				<g>
					<defs>
						<polyline id="SVGID_7_" points="88.5,232.3 58.8,244.5 58.4,252.7 61.7,249.3 74.5,244 76.2,243.3 56,283.4 86.1,271.1 
							86.5,262.7 83.3,266.6 69.6,272.3 68.3,272.8 88.5,232.3 						"/>
					</defs>
					<clipPath id="SVGID_8_">
						<use xlink:href="#SVGID_7_"  style="overflow:visible;"/>
					</clipPath>
					
						<linearGradient id="SVGID_9_" gradientUnits="userSpaceOnUse" x1="1250.4583" y1="-1020.0945" x2="1252.2308" y2="-1020.0945" gradientTransform="matrix(18.3121 0 0 -18.3119 -22842.4824 -18421.9922)">
						<stop  offset="0" style="stop-color:#FFFFFF"/>
						<stop  offset="0.9602" style="stop-color:#292526"/>
						<stop  offset="1" style="stop-color:#231F20"/>
					</linearGradient>
					<rect x="56" y="232.3" class="st5" width="32.5" height="51.1"/>
				</g>
				<polygon class="st0" points="58.5,289.3 50.3,280.5 62.3,256.9 52,252.3 52.7,240.1 86.1,226.4 94.2,235.2 82.3,259 92.9,263 
					92.3,275.4 				"/>
				<g>
					<defs>
						<path id="SVGID_10_" d="M123.1,236.3c-2.5-1.3-7.2,0.8-10,3.9c-1.4,1.8-2.3,3.7-2,5.2l13.5-5.5l0-0.6
							C124.7,237.7,123.9,237,123.1,236.3 M131.4,246c-4.2,7.5-12.1,12.6-19.6,14.4c-4,0.6-7.5-0.8-9.3-3.5c-2-3.4-1-9.7,2.3-14.7
							c4.3-6.3,10.2-10.8,16.8-12.4c4.5-1,8.2-0.2,10.3,2.4c1.3,1.8,1.6,4.8,1.2,7.9l-23.1,9.5c-0.1,1.6,0.2,2.3,0.7,3.1
							c1.3,1.3,3.2,1.5,5.3,1.1c3.5-1,7.1-3.8,8.8-6.9L131.4,246z"/>
					</defs>
					<clipPath id="SVGID_11_">
						<use xlink:href="#SVGID_10_"  style="overflow:visible;"/>
					</clipPath>
					
						<linearGradient id="SVGID_12_" gradientUnits="userSpaceOnUse" x1="1274.8676" y1="-1047.4751" x2="1276.6404" y2="-1047.4751" gradientTransform="matrix(17.9561 0 0 -17.9559 -22790.1035 -18563.4629)">
						<stop  offset="0" style="stop-color:#FFFFFF"/>
						<stop  offset="0.9602" style="stop-color:#292526"/>
						<stop  offset="1" style="stop-color:#231F20"/>
					</linearGradient>
					<rect x="100.6" y="228.7" class="st6" width="33.1" height="32.3"/>
				</g>
				<path class="st0" d="M110,266.9c-5.4,0-10.1-2.5-12.8-6.6l-0.1-0.2c-3.8-6.5-1.5-15.4,2.5-21.5c5.2-7.7,12.4-13,20.5-15.1l0.2,0
					c6.9-1.5,13,0.2,16.7,4.6l0.3,0.3c1.8,2.6,2.7,6.1,2.5,10l3.5-0.5l-6.2,11.1c-4.7,8.5-13.6,15-23.7,17.5l-0.5,0.1
					C111.9,266.9,110.9,266.9,110,266.9z"/>
				<g>
					<defs>
						<path id="SVGID_13_" d="M94.9,237.7c2.5-1,4.7-3.7,4.7-6c0.1-2.3-1.9-3.2-4.4-2.2c-2.5,1-4.7,3.7-4.7,6
							C90.4,237.8,92.3,238.8,94.9,237.7"/>
					</defs>
					<clipPath id="SVGID_14_">
						<use xlink:href="#SVGID_13_"  style="overflow:visible;"/>
					</clipPath>
					
						<linearGradient id="SVGID_15_" gradientUnits="userSpaceOnUse" x1="4236.2539" y1="-4568.8315" x2="4238.0264" y2="-4568.8315" gradientTransform="matrix(5.1733 0 0 -5.1733 -21824.9727 -23402.3047)">
						<stop  offset="0" style="stop-color:#FFFFFF"/>
						<stop  offset="0.9602" style="stop-color:#292526"/>
						<stop  offset="1" style="stop-color:#231F20"/>
					</linearGradient>
					<rect x="90.4" y="228.5" class="st7" width="9.3" height="10.3"/>
				</g>
				<path class="st0" d="M93,244.5C93,244.5,93,244.5,93,244.5c-2.5,0-4.8-1-6.5-2.7c-1.7-1.7-2.5-4.1-2.4-6.6
					c0.2-4.7,3.9-9.6,8.7-11.6c4-1.6,8.2-0.9,10.8,1.8c1.7,1.7,2.5,4.1,2.4,6.6c-0.2,4.7-3.8,9.6-8.7,11.6
					C95.9,244.2,94.4,244.5,93,244.5z M93.2,231.8c0,0.7,0.4,1.7,1.1,2.5c0.7,0.7,1.6,1.2,2.4,1.2c0-0.7-0.4-1.7-1.1-2.5
					C95,232.3,94.1,231.8,93.2,231.8z"/>
				<g>
					<defs>
						<path id="SVGID_16_" d="M144.9,233.6c-0.2,4.3,2.8,6.6,6.6,5.1c3.8-1.6,7-6.3,7.2-10.7c0.2-4.3-2.8-6.6-6.6-5.1
							C148.3,224.4,145.1,229.2,144.9,233.6 M145.2,223.7c1.6-1.8,2.7-3,5-4.9c3.8-3.4,9.1-5,12.3-4.2c4.6,1.2,5.4,5.7,4.8,10.7
							c-0.7,5-2.7,10.6-8.1,15.3c-3.8,3.1-9.2,4.9-12.2,3.8c-1.3-0.6-1.8-0.7-2.4-1.3l-0.2,4.1l-8,3.3l1.4-35.2l-2.8-2l10.9-4.4
							l-0.6,14.7L145.2,223.7z"/>
					</defs>
					<clipPath id="SVGID_17_">
						<use xlink:href="#SVGID_16_"  style="overflow:visible;"/>
					</clipPath>
					
						<linearGradient id="SVGID_18_" gradientUnits="userSpaceOnUse" x1="1253.7704" y1="-1021.1132" x2="1255.543" y2="-1021.1132" gradientTransform="matrix(18.2899 0 0 -18.2897 -22796.3652 -18446.1875)">
						<stop  offset="0" style="stop-color:#FFFFFF"/>
						<stop  offset="0.9602" style="stop-color:#292526"/>
						<stop  offset="1" style="stop-color:#231F20"/>
					</linearGradient>
					<rect x="135" y="208.9" class="st8" width="32.9" height="41.6"/>
				</g>
				<path class="st0" d="M129.6,260.1l1.7-41.7l-9.5-6.7l30.8-12.6l-0.4,10.8c3.9-1.8,8.2-2.4,11.6-1.7l0.2,0
					c3.4,0.9,11.2,4.3,9.5,17.7c-1.1,7.9-4.6,14.4-10.2,19.3l-0.1,0.1c-3.7,3.1-8.4,5.1-12.6,5.5l0,0.6L129.6,260.1z"/>
				<g>
					<defs>
						<polyline id="SVGID_19_" points="97.4,266.4 90.2,269.4 91.3,241.7 98.5,238.7 97.4,266.4 						"/>
					</defs>
					<clipPath id="SVGID_20_">
						<use xlink:href="#SVGID_19_"  style="overflow:visible;"/>
					</clipPath>
					
						<linearGradient id="SVGID_21_" gradientUnits="userSpaceOnUse" x1="4636.3154" y1="-5046.5225" x2="4638.0879" y2="-5046.5225" gradientTransform="matrix(4.7194 0 0 -4.7194 -21790.4629 -23562.5078)">
						<stop  offset="0" style="stop-color:#FFFFFF"/>
						<stop  offset="0.9602" style="stop-color:#292526"/>
						<stop  offset="1" style="stop-color:#231F20"/>
					</linearGradient>
					<rect x="90.2" y="238.7" class="st9" width="8.4" height="30.7"/>
				</g>
				<polygon class="st0" points="83.4,279.1 85.1,237.3 105.3,229 103.6,270.8 				"/>
				<g>
					<defs>
						<path id="SVGID_22_" d="M176.6,221.5c-0.2,4.3,2.8,6.6,6.6,5.1c3.8-1.6,7-6.3,7.2-10.7c0.2-4.3-2.8-6.6-6.6-5
							C180,212.4,176.7,217.1,176.6,221.5 M190.9,205.1l0-0.1l0.2-4.2l8-3.3l-1.1,27.8l-8,3.3l0.2-4.1c-0.7,1.1-1.2,1.6-2.6,3.3
							c-3.3,3.7-8.7,6.3-12.3,6.2c-5.2-0.4-6.8-4.5-7.1-9c-0.2-4.7,1-10,5.8-15c3.3-3.4,8.6-6.2,12.3-5.8
							C188.3,204.3,189.4,204.6,190.9,205.1z"/>
					</defs>
					<clipPath id="SVGID_23_">
						<use xlink:href="#SVGID_22_"  style="overflow:visible;"/>
					</clipPath>
					
						<linearGradient id="SVGID_24_" gradientUnits="userSpaceOnUse" x1="1310.2463" y1="-1086.8868" x2="1312.0187" y2="-1086.8868" gradientTransform="matrix(17.4646 0 0 -17.4644 -22714.9102 -18765.9961)">
						<stop  offset="0" style="stop-color:#FFFFFF"/>
						<stop  offset="0.9602" style="stop-color:#292526"/>
						<stop  offset="1" style="stop-color:#231F20"/>
					</linearGradient>
					<rect x="167.8" y="197.6" class="st10" width="31.2" height="36.5"/>
				</g>
				<path class="st0" d="M175.3,240.4l-0.6,0c-3.6-0.2-12.1-2.2-13-14.9c-0.4-7.5,2.2-14.4,7.6-19.9c3.4-3.5,9.4-7.5,15.5-7.8l0-1.3
					l20.9-8.6l-1.7,41.9l-18.2,7.5C182.4,239.2,178.6,240.4,175.3,240.4z M175.3,232.3l0,1.7L175.3,232.3L175.3,232.3z"/>
				<g>
					<defs>
						<path id="SVGID_25_" d="M222.3,185l-2.5-1.7l10.5-4.3l-0.2,5.8l3.4-1.4l-0.3,6.6l-3.4,1.4l-0.6,14.2c0,1.2,2.4,0.3,3.4-0.1
							l-0.2,5.4c-3.5,1.6-7.4,3.7-10,2.9c-0.8-0.5-1.2-0.9-1.2-1.5l0.7-17.7l-0.1,0l-4,1.6c-1.3,0.5-2.5,1.1-3.7,2
							c-2,2-3.9,3.9-3.9,6.2l-0.6,16l-7.9,3.3l1.1-27.7l8-3.3l-0.2,5.6l0.1,0c0.9-2.6,2.3-5.7,4.9-7.5c1.2-0.8,5.1-2.5,6.7-3.1
							L222.3,185"/>
					</defs>
					<clipPath id="SVGID_26_">
						<use xlink:href="#SVGID_25_"  style="overflow:visible;"/>
					</clipPath>
					
						<linearGradient id="SVGID_27_" gradientUnits="userSpaceOnUse" x1="1277.7582" y1="-1047.014" x2="1279.5308" y2="-1047.014" gradientTransform="matrix(17.9489 0 0 -17.9487 -22732.7012 -18591.1387)">
						<stop  offset="0" style="stop-color:#FFFFFF"/>
						<stop  offset="0.9602" style="stop-color:#292526"/>
						<stop  offset="1" style="stop-color:#231F20"/>
					</linearGradient>
					<rect x="201.7" y="179.1" class="st11" width="31.8" height="44.7"/>
				</g>
				<path class="st0" d="M194.9,233.4l1.7-41.7l15-6.1l-5.4-3.5l30.9-12.6l-0.2,5.7l3.4-1.4l-0.8,20.6l-3.4,1.4l-0.1,1.8l3.3-1.2
					l-0.7,18.6l-4.1,2c-3.3,1.6-7,3.4-10.9,3.4c-1.1,0-2.1-0.1-3.1-0.4l-0.9-0.2l-0.8-0.5c-1.3-0.8-2.2-1.7-2.8-2.6l-0.3,8.2
					L194.9,233.4z"/>
				<polyline class="st12" points="89.1,232.2 59.4,244.4 58.9,252.6 62.3,249.2 75,243.9 76.8,243.2 56.6,283.3 86.7,271 
					87.1,262.6 83.9,266.5 70.2,272.2 68.9,272.7 89.1,232.2 				"/>
				<path class="st12" d="M55.5,284.3l20.2-40.1l-0.5,0.2l-12.7,5.2l-4.2,4.3l0.5-9.9l31.3-12.8l-20.2,40.5l13.7-5.6l4.1-5.1
					l-0.5,10.3l-0.3,0.1L55.5,284.3z M77.9,242.1l-20.2,40.2l28.5-11.7l0.3-6.5l-2.4,2.9l-16.3,6.6L88,233.2l-28.1,11.5l-0.4,6.5
					l2.6-2.5L77.9,242.1z"/>
				<path class="st12" d="M123.6,236.2c-2.5-1.3-7.2,0.8-10,3.9c-1.4,1.8-2.3,3.7-2,5.2l13.5-5.5l0-0.6
					C125.3,237.6,124.5,236.9,123.6,236.2 M132,245.9c-4.2,7.5-12.2,12.6-19.6,14.4c-4,0.6-7.5-0.8-9.3-3.5c-2-3.4-1-9.7,2.3-14.7
					c4.2-6.3,10.2-10.8,16.8-12.4c4.5-1,8.2-0.2,10.3,2.4c1.3,1.8,1.6,4.8,1.2,7.9l-23.1,9.5c-0.1,1.6,0.2,2.3,0.7,3.1
					c1.3,1.3,3.2,1.5,5.3,1.1c3.5-1,7.1-3.8,8.8-6.9L132,245.9z"/>
				<path class="st12" d="M110.5,261c-3.3,0-6.3-1.5-7.8-3.9c-2.1-3.6-1.2-10,2.3-15.3c4.3-6.5,10.4-11,17.1-12.7
					c4.8-1.1,8.6-0.1,10.9,2.6c1.4,1.9,1.8,4.8,1.3,8.3l0,0.3l-0.3,0.1l-22.8,9.3c0,1.3,0.2,1.9,0.6,2.4c0.7,0.7,1.8,1.1,3.2,1.1
					l0,0c0.5,0,1.1-0.1,1.6-0.2c3.3-0.9,6.8-3.6,8.5-6.7l0.1-0.2l7.8-1l-0.5,0.9c-3.9,7-11.5,12.6-19.9,14.6
					C111.8,260.9,111.2,261,110.5,261z M125.8,229.8c-1.1,0-2.2,0.1-3.4,0.4c-6.4,1.6-12.2,6-16.4,12.2c-3.2,4.8-4.2,10.9-2.3,14.1
					c1.6,2.5,5,3.8,8.7,3.3c7.7-1.9,14.8-6.9,18.7-13.2l-5.2,0.7c-1.9,3.2-5.5,5.9-9,6.9c-0.7,0.1-1.3,0.2-1.8,0.2l0,0
					c-1.7,0-3.1-0.5-4-1.5c-0.6-0.9-0.9-1.7-0.8-3.5l0-0.3l0.3-0.1l22.8-9.3c0.4-3,0-5.7-1.1-7.2
					C130.7,230.7,128.5,229.8,125.8,229.8z M111.3,245.9l-0.1-0.6c-0.3-1.5,0.4-3.5,2.1-5.6c2.3-2.6,5.9-4.4,8.6-4.4
					c0.8,0,1.5,0.2,2,0.5l0.2,0.2c0.8,0.7,1.7,1.5,1.6,3.2l0,0.9L111.3,245.9z M121.8,236.3c-2.4,0-5.7,1.8-7.8,4.1
					c-1.2,1.5-1.9,2.9-1.9,4.1l12.5-5.1l0-0.3c0.1-1.2-0.5-1.7-1.2-2.4l-0.1-0.1C123,236.4,122.4,236.3,121.8,236.3z"/>
				<path class="st12" d="M95.4,237.6c2.5-1,4.7-3.7,4.7-6c0.1-2.3-1.9-3.3-4.4-2.2c-2.5,1-4.7,3.7-4.7,6
					C90.9,237.7,92.9,238.7,95.4,237.6"/>
				<path class="st12" d="M93.5,238.6L93.5,238.6c-0.9,0-1.7-0.3-2.3-0.9c-0.5-0.6-0.8-1.4-0.8-2.3c0.1-2.5,2.3-5.3,5.1-6.4
					c1.8-0.7,3.4-0.6,4.4,0.4c0.5,0.6,0.8,1.4,0.8,2.3c-0.1,2.5-2.3,5.3-5.1,6.4C94.9,238.4,94.2,238.6,93.5,238.6z M97.7,229.5
					c-0.5,0-1.1,0.1-1.7,0.4c-2.4,1-4.3,3.4-4.4,5.5c0,0.6,0.1,1.2,0.5,1.5c0.3,0.4,0.9,0.6,1.5,0.6h0c0.5,0,1.1-0.1,1.7-0.4
					c2.4-1,4.3-3.4,4.4-5.5c0-0.6-0.1-1.2-0.5-1.5C98.8,229.7,98.3,229.5,97.7,229.5z"/>
				<path class="st12" d="M145.5,233.5c-0.2,4.3,2.8,6.6,6.6,5c3.8-1.6,7-6.3,7.2-10.7c0.2-4.3-2.8-6.6-6.6-5.1
					C148.9,224.3,145.7,229.1,145.5,233.5 M145.8,223.6c1.6-1.8,2.7-3,5-4.9c3.8-3.4,9.1-5,12.3-4.2c4.6,1.2,5.4,5.7,4.8,10.7
					c-0.7,5-2.7,10.6-8.1,15.3c-3.8,3.1-9.2,4.9-12.2,3.8c-1.4-0.6-1.8-0.7-2.4-1.3l-0.2,4.1l-8,3.3l1.4-35.2l-2.8-2l10.9-4.4
					l-0.6,14.7L145.8,223.6z"/>
				<path class="st12" d="M136.4,251.2l1.4-35.7l-3.3-2.4L147,208l-0.6,14.2c1.2-1.3,2.3-2.3,4-3.9c3.1-2.8,7.4-4.5,10.9-4.5
					c0.6,0,1.3,0.1,1.8,0.2c2.9,0.7,6.2,3.3,5.2,11.3c-0.9,6.5-3.6,11.6-8.3,15.6c-3.9,3.2-9.6,5-12.7,3.9l-0.4-0.2
					c-0.6-0.3-1-0.4-1.4-0.6l-0.1,3.5L136.4,251.2z M136.6,213.3l2.3,1.6l-1.4,34.7l6.9-2.8l0.2-4.9l0.8,0.7c0.5,0.4,0.9,0.6,2,1
					l0.3,0.1c0.5,0.2,1.1,0.3,1.8,0.3c3,0,6.9-1.6,9.9-4c4.4-3.8,7-8.7,7.9-14.9c0.7-5.8-0.8-9.2-4.4-10.1c-0.5-0.1-1-0.2-1.6-0.2
					c-3.3,0-7.3,1.7-10.2,4.3c-2.2,1.9-3.3,3-4.9,4.9l-0.9-0.5l0-0.1l0.6-13.8L136.6,213.3z M149.8,239.5L149.8,239.5
					c-1.3,0-2.4-0.5-3.3-1.4c-1-1.1-1.6-2.8-1.5-4.7c0.2-4.5,3.6-9.5,7.5-11.2c2.3-0.9,4.4-0.6,5.8,0.8c1,1.1,1.6,2.8,1.5,4.7
					c-0.2,4.5-3.6,9.5-7.5,11.2C151.4,239.3,150.6,239.5,149.8,239.5z M155,222.8c-0.7,0-1.4,0.2-2.1,0.5c-3.6,1.5-6.7,6.1-6.9,10.2
					c-0.1,1.7,0.4,3.1,1.2,4c0.6,0.7,1.5,1,2.5,1l0,0c0.7,0,1.4-0.2,2.1-0.5c3.6-1.5,6.7-6.1,6.9-10.2c0.1-1.7-0.4-3.1-1.2-4
					C156.9,223.1,156,222.8,155,222.8z"/>
				<polyline class="st12" points="98,266.3 90.7,269.3 91.8,241.6 99.1,238.6 98,266.3 				"/>
				<path class="st12" d="M90.2,270.1l1.2-28.9l8.3-3.4l-1.2,28.9L90.2,270.1z M92.4,241.9l-1.1,26.6l6.2-2.5l1.1-26.6L92.4,241.9z"
					/>
				<path class="st12" d="M177.1,221.4c-0.2,4.3,2.8,6.6,6.6,5.1c3.8-1.6,7-6.3,7.2-10.7c0.2-4.3-2.8-6.6-6.6-5.1
					C180.5,212.3,177.3,217,177.1,221.4 M191.5,205l0-0.1l0.2-4.2l8-3.3l-1.1,27.8l-8,3.3l0.2-4.1c-0.7,1.1-1.2,1.6-2.6,3.3
					c-3.3,3.7-8.7,6.3-12.3,6.2c-5.2-0.4-6.8-4.5-7.1-9c-0.2-4.7,1-10,5.8-15c3.3-3.4,8.6-6.2,12.3-5.8
					C188.9,204.2,190,204.5,191.5,205z"/>
				<path class="st12" d="M175.8,234.5l-0.1,0c-4.6-0.3-7.2-3.5-7.6-9.5c-0.3-5.8,1.7-11,6-15.4c3.7-3.8,9.1-6.3,12.7-6
					c1.8,0.1,2.9,0.4,4.1,0.8l0.1-3.9l9-3.7l-1.2,29l-9,3.7l0.1-3.2c-0.3,0.4-0.7,0.9-1.2,1.5l-0.4,0.5
					C185.2,231.7,179.8,234.5,175.8,234.5z M186.1,204.6c-3.3,0-8.1,2.4-11.3,5.7c-4,4.2-5.9,9.1-5.7,14.6c0.4,5.5,2.6,8.3,6.6,8.5
					l0.1,0.5v-0.5c3.6,0,8.8-2.7,11.8-6l0.4-0.4c1.1-1.4,1.6-1.9,2.2-2.8l1-1.6l-0.2,5.2l6.9-2.8l1.1-26.7l-6.9,2.8l-0.1,3.8
					l0.4,0.9l-1-0.2c-1.5-0.5-2.6-0.8-4.6-0.9C186.5,204.6,186.3,204.6,186.1,204.6z M181.4,227.5L181.4,227.5
					c-1.3,0-2.4-0.5-3.3-1.4c-1.1-1.1-1.6-2.8-1.5-4.7c0.2-4.5,3.6-9.5,7.5-11.2c2.3-0.9,4.4-0.6,5.8,0.8c1,1.1,1.6,2.8,1.5,4.7
					c-0.2,4.5-3.6,9.5-7.5,11.2C183.1,227.3,182.2,227.5,181.4,227.5z M186.7,210.7c-0.7,0-1.4,0.2-2.1,0.5
					c-3.6,1.5-6.7,6.1-6.9,10.2c-0.1,1.7,0.4,3.1,1.2,4c0.7,0.7,1.5,1,2.5,1l0,0c0.7,0,1.4-0.2,2.1-0.5c3.6-1.5,6.7-6.1,6.9-10.2
					c0.1-1.7-0.4-3.1-1.2-4C188.5,211.1,187.7,210.7,186.7,210.7z"/>
				<path class="st12" d="M222.9,184.9l-2.5-1.7l10.5-4.3l-0.2,5.8l3.4-1.4l-0.3,6.6l-3.4,1.4l-0.6,14.2c0,1.2,2.4,0.3,3.4-0.1
					l-0.2,5.4c-3.5,1.6-7.4,3.7-10,2.9c-0.8-0.5-1.2-0.9-1.2-1.5l0.7-17.7l-0.1,0l-4,1.6c-1.3,0.5-2.5,1.1-3.7,2
					c-2,2-3.9,3.9-3.9,6.2l-0.6,16l-7.9,3.3l1.1-27.7l8-3.3l-0.2,5.6l0.1,0c0.9-2.6,2.3-5.7,4.9-7.5c1.2-0.8,5.1-2.5,6.7-3.1
					L222.9,184.9"/>
				<path class="st12" d="M201.7,224.4l1.1-28.9l9-3.7l-0.1,3.6c1.1-2.3,2.4-4,4.1-5.1c1.2-0.8,4.7-2.4,6.5-3l0.1-2.1l-3.1-2
					l12.2-4.9l-0.2,5.8l3.4-1.4l-0.3,7.7l-3.4,1.4l-0.6,13.8c0,0,0,0,0.2,0c0.6,0,1.7-0.4,2.3-0.6l0.9-0.3l-0.3,6.5l-0.9,0.5
					c-2.9,1.4-5.8,2.8-8.3,2.8c-0.5,0-1-0.1-1.4-0.2l-0.1-0.1c-0.7-0.5-1.4-1-1.4-2l0.7-16.8l-3.3,1.4c-1.5,0.6-2.6,1.2-3.5,1.9
					c-2,2-3.7,3.8-3.7,5.8l-0.7,16.4L201.7,224.4z M203.8,196.3l-1.1,26.6l6.9-2.8l0.6-15.7c0.1-2.6,2.2-4.7,4.1-6.6
					c1.1-0.8,2.3-1.5,3.8-2.1l4.7-1.9l0,0.8l-0.7,17.7c0,0.3,0.1,0.6,0.8,1c0.3,0.1,0.7,0.1,1.1,0.1c2.2,0,5.2-1.4,7.9-2.7l0.4-0.2
					l0.2-4.4c-1.2,0.4-2.6,0.7-3.1,0.1c-0.1-0.1-0.3-0.4-0.3-0.8l0.6-14.5l3.4-1.4l0.2-5.4l-3.4,1.4l0.2-5.8l-8.8,3.6l2,1.3
					l-0.1,3.4l-0.3,0.1c-1.6,0.5-5.4,2.2-6.6,3c-2,1.4-3.6,3.9-4.7,7.3l-0.1,0.2l-1,0.4l0-0.8l0.2-4.8L203.8,196.3z"/>
				<path class="st0" d="M227,225.1c2.8,0,5.1,2.3,5.1,5.2c0,2.9-2.3,5.2-5.1,5.2c-2.8,0-5.2-2.3-5.2-5.2
					C221.8,227.4,224.2,225.1,227,225.1L227,225.1 M227,226.2c-2.2,0-3.9,1.9-3.9,4.2c0,2.3,1.7,4.1,3.9,4.1c2.2,0,3.9-1.8,3.9-4.1
					C230.9,228,229.2,226.2,227,226.2L227,226.2z M226.1,233.3h-1.2v-5.7c0.5-0.1,1-0.2,1.8-0.2c1,0,1.6,0.2,2,0.5
					c0.3,0.2,0.5,0.6,0.5,1.2c0,0.7-0.5,1.2-1.1,1.3v0c0.5,0.1,0.8,0.5,0.9,1.4c0.1,0.9,0.2,1.2,0.3,1.4h-1.3
					c-0.1-0.2-0.2-0.7-0.3-1.5c-0.1-0.6-0.5-0.9-1.1-0.9h-0.5V233.3z M226.1,230h0.6c0.7,0,1.3-0.2,1.3-0.8c0-0.5-0.3-0.8-1.2-0.8
					c-0.3,0-0.5,0-0.7,0V230z"/>
			</g>
		</g>
	</g>
</g>
</svg>
